<?xml version="1.0" ?><svg height="64" viewBox="0 0 64 64" width="64" xmlns="http://www.w3.org/2000/svg"><title/><g data-name="set-016@surgeon-white-male" id="e6d69710-0ad4-4dca-842a-15d83c4e047a"><g data-name="police-officers-white-female" id="e7709831-08a2-464e-9362-3b0ced0a919c"><g data-name="police-officers-white-female-2" id="a644d286-2238-4745-ba15-bfe033d6692a"><g data-name="Icons" id="e0b8d7a9-a5cb-4ec1-9759-f5bdf67b1b08"><path d="M54,51.473a3.639,3.639,0,0,0-2.58-2.9L37,44.2a23.855,23.855,0,0,1-5.18,4.37,23.475,23.475,0,0,1-5.17-4.36l-14.53,4.37a3.639,3.639,0,0,0-2.59,2.9L9,54.673a56.208,56.208,0,0,0,22.81,4.56,56.256,56.256,0,0,0,22.74-4.56Z" fill="#3c495a"/><path d="M43.29,38.873c0,5-5.12,5.31-11.44,5.31s-11.45-.32-11.45-5.31,5.13-9,11.45-9S43.29,33.873,43.29,38.873Z" fill="#333"/><path d="M34.1,30c-6.29,0-11.38,4.06-11.38,9,0,3.44,2.41,4.66,6,5.09h3.13c6.33,0,11.45-.32,11.45-5.31C43.29,34.483,39.34,30.823,34.1,30Z" fill="#333"/><path d="M43.29,38.873c0,5-5.12,5.31-11.44,5.31s-11.45-.32-11.45-5.31,5.13-9,11.45-9S43.29,33.873,43.29,38.873Z" fill="none" stroke="#333" stroke-linejoin="round" stroke-width="1.5"/><rect fill="#edccc3" height="12.78" width="12.78" x="25.51" y="36.063"/><path d="M25.51,39.483l6,5.73a4.318,4.318,0,0,1,1.12,2.91,2.872,2.872,0,0,0,.11.72h5.5V36.063H25.51Z" fill="#d8b3ad"/><path d="M41.92,31.373l-.57,3a6.487,6.487,0,0,1-2.43,3.93l-2.62,2a6.769,6.769,0,0,1-8.21,0l-2.63-2A6.474,6.474,0,0,1,23,34.383l-.57-3c-1.89-.08-2.83-2.06-3.08-4-.29-2.29.78-4,2.55-4v-2c0-5.41,2-10.51,10.25-10.51S42.44,16,42.44,21.393v2c1.77,0,2.86,1.71,2.57,4-.24,1.9-1.24,3.86-3.08,4Z" fill="#a88064"/><path d="M41.92,31.373l-.57,3a6.487,6.487,0,0,1-2.43,3.93l-2.62,2a6.769,6.769,0,0,1-8.21,0l-2.63-2A6.474,6.474,0,0,1,23,34.383l-.57-3c-1.89-.08-2.83-2.06-3.08-4-.29-2.29.78-4,2.55-4v-2c0-5.41,2-10.51,10.25-10.51S42.44,16,42.44,21.393v2c1.77,0,2.86,1.71,2.57,4-.24,1.9-1.24,3.86-3.08,4Z" fill="#edccc3"/><path d="M42.43,23.383v-2c0-5.41-2-10.51-10.25-10.51a16.668,16.668,0,0,0-3,.26V22.3A3.9,3.9,0,0,1,28,25.183a.45.45,0,0,0,.2.77c1.5.43,2.3.71,3.23.47a.5.5,0,0,1,.6.378.526.526,0,0,1,.012.112v2.84a1.11,1.11,0,0,0,.62.94c.57.32.16,1.4-.62,1.4h0a1.7,1.7,0,0,1-.89-.23c-.74-.37-1.43.39-1.27.68s.34,0,1.08.35a2.658,2.658,0,0,0,1.1.27v3.68a.4.4,0,0,0,.31.38c1.31.31,2,2.49-.31,3h0a1.24,1.24,0,0,0-1,1.2v.19a6.759,6.759,0,0,0,5.33-1.26l2.62-2a6.461,6.461,0,0,0,2.43-3.93l.57-3h0c1.84-.12,2.84-2.08,3.08-4C45.29,25.083,44.2,23.383,42.43,23.383Z" fill="#e5c2ba"/><path d="M42.44,21.383c0-5.41-2-10.51-10.25-10.51S21.94,16,21.94,21.383v2a2.31,2.31,0,0,0-1.88.93,24,24,0,0,0,11.63,2.86A23.637,23.637,0,0,0,44,23.943a2.336,2.336,0,0,0-1.53-.56C42.46,23.063,42.44,21.7,42.44,21.383Z" fill="#e5c2ba"/><path d="M30.59,11a13.559,13.559,0,0,0-1.36.19h0v11.12A3.9,3.9,0,0,1,28,25.193a.45.45,0,0,0,.2.77c1.5.43,2.3.71,3.23.47a.49.49,0,0,1,.595.355.528.528,0,0,1,.015.125v.25a23.575,23.575,0,0,0,12-3.22h0a2.38,2.38,0,0,0-.55-.34l-.24-.1-.25-.06a2.345,2.345,0,0,0-.54-.07v-2c0-5.41-2-10.51-10.25-10.51a15.128,15.128,0,0,0-1.55.07Z" fill="#d8b3ad"/><path d="M42.43,23.383v-2c0-5.41-2-10.51-10.25-10.51S21.94,16,21.94,21.383v2a7.244,7.244,0,0,1,.79,4c0-6.48,9-2.31,13.54-6.81,2.25,3.13,5.47,1.84,5.47,6.82A8.454,8.454,0,0,1,42.43,23.383Z" fill="#333"/><path d="M21.71,23.4v-2.38a17.238,17.238,0,0,1,.18-2.38,10.089,10.089,0,0,1,1.69-4.49,8.08,8.08,0,0,1,3.87-2.87,14.254,14.254,0,0,1,4.75-.75,14.348,14.348,0,0,1,4.76.71A8.21,8.21,0,0,1,40.9,14.1a10.362,10.362,0,0,1,1.76,4.52,17.7,17.7,0,0,1,.21,2.4v2.41l-.13.27a.156.156,0,0,1-.06.11.939.939,0,0,0-.08.2c-.05.14-.1.29-.14.44a7.678,7.678,0,0,0-.17,1,16.913,16.913,0,0,0-.1,2h-.91a7.236,7.236,0,0,0-.28-2.19,2.659,2.659,0,0,0-1.25-1.51c-.61-.37-1.37-.68-2.06-1.14a7.091,7.091,0,0,1-1.82-1.72l.75.06A8.4,8.4,0,0,1,32.81,23a26.089,26.089,0,0,1-4.14.64,12.68,12.68,0,0,0-3.85.79,2.779,2.779,0,0,0-1.26,1.18,4,4,0,0,0-.37,1.79h-.92a14.852,14.852,0,0,0-.12-2,9.734,9.734,0,0,0-.19-1,2.738,2.738,0,0,0-.15-.43,1.736,1.736,0,0,0-.15-.27l-.16-.31v-2.41a16.346,16.346,0,0,1,.2-2.41,10.381,10.381,0,0,1,1.78-4.53,8.11,8.11,0,0,1,4-2.85,14.343,14.343,0,0,1,4.76-.7,14.278,14.278,0,0,1,4.74.76,8.08,8.08,0,0,1,3.87,2.87,10.089,10.089,0,0,1,1.69,4.49,28.039,28.039,0,0,1,.16,4.76.219.219,0,0,1-.22.22h-.01a.219.219,0,0,1-.22-.22v-.01h0a26.688,26.688,0,0,0-.25-4.65,9.634,9.634,0,0,0-1.65-4.23,7.479,7.479,0,0,0-3.62-2.61,13.571,13.571,0,0,0-4.53-.66,13.69,13.69,0,0,0-4.51.72,7.34,7.34,0,0,0-3.54,2.62,9.492,9.492,0,0,0-1.57,4.18A17.433,17.433,0,0,0,22.39,21v2.3l-.16-.3a1.736,1.736,0,0,1,.4.6c.08.18.14.37.2.55a8.467,8.467,0,0,1,.23,1.08,15.467,15.467,0,0,1,.13,2.14.47.47,0,0,1-.93,0h0a5,5,0,0,1,.46-2.21,3.609,3.609,0,0,1,1.68-1.6,13.148,13.148,0,0,1,4.17-.9,25.515,25.515,0,0,0,4-.63,7.368,7.368,0,0,0,3.35-1.82.5.5,0,0,1,.707,0l0,0v.06a6.272,6.272,0,0,0,1.55,1.49c.6.41,1.3.7,2,1.14a3.665,3.665,0,0,1,1.63,2,8.057,8.057,0,0,1,.32,2.46.46.46,0,0,1-.91,0h0a19.191,19.191,0,0,1,.13-2.13,9.976,9.976,0,0,1,.2-1.07,5.635,5.635,0,0,1,.17-.54,2.005,2.005,0,0,1,.35-.61l-.12.28v-2.3a15.814,15.814,0,0,0-.18-2.29,9.415,9.415,0,0,0-1.58-4.19,7.461,7.461,0,0,0-3.55-2.62,13.659,13.659,0,0,0-4.51-.71,13.467,13.467,0,0,0-4.52.67,7.469,7.469,0,0,0-3.62,2.6,9.538,9.538,0,0,0-1.65,4.22,31.293,31.293,0,0,0-.24,4.64h0a.21.21,0,0,1-.2.221H21.87A.219.219,0,0,1,21.71,23.4Z" fill="#333"/><line fill="none" stroke="#333" stroke-linecap="round" stroke-linejoin="round" stroke-width="1.5" x1="25.51" x2="25.51" y1="38.633" y2="42.223"/><path d="M41.92,31.373l-.57,3a6.487,6.487,0,0,1-2.43,3.93l-2.62,2a6.769,6.769,0,0,1-8.21,0l-2.63-2A6.474,6.474,0,0,1,23,34.383l-.57-3c-1.89-.08-2.83-2.06-3.08-4-.29-2.29.78-4,2.55-4v-2c0-5.41,2-10.51,10.25-10.51S42.44,16,42.44,21.393v2c1.77,0,2.86,1.71,2.57,4-.24,1.9-1.24,3.86-3.08,4Z" fill="none" stroke="#333" stroke-linejoin="round" stroke-width="1.5"/><line fill="none" stroke="#333" stroke-linecap="round" stroke-linejoin="round" stroke-width="1.5" x1="38.29" x2="38.29" y1="39.273" y2="42.223"/><line fill="none" stroke="#d8b5af" stroke-linecap="round" stroke-miterlimit="10" stroke-width="0.5" x1="29.2" x2="28.91" y1="35.703" y2="36.273"/><line fill="none" stroke="#d8b5af" stroke-linecap="round" stroke-miterlimit="10" stroke-width="0.5" x1="34.93" x2="35.22" y1="35.703" y2="36.273"/><path d="M30.06,32.7c1,0,1,.5,2,.5s1-.5,2-.5" fill="none" stroke="#ba8d86" stroke-linecap="round" stroke-miterlimit="10" stroke-width="0.75"/><circle cx="36.5" cy="28.263" fill="#333" r="0.75"/><path d="M39.26,26.583c-.43,0-.86-.12-1.27-.13a6.115,6.115,0,0,0-1.21,0,9.029,9.029,0,0,0-1.23.13,5.268,5.268,0,0,1-1.39.08.23.23,0,0,1-.2-.256v0a.21.21,0,0,1,.17-.19h0a10.846,10.846,0,0,0,1.2-.43,4.378,4.378,0,0,1,1.36-.34,5.23,5.23,0,0,1,1.42.16,5.806,5.806,0,0,1,1.29.51.229.229,0,0,1,.1.309h0a.21.21,0,0,1-.23.12Z" fill="#333"/><circle cx="27.52" cy="28.263" fill="#333" r="0.75"/><path d="M24.61,26.143a5.806,5.806,0,0,1,1.29-.51,5.23,5.23,0,0,1,1.42-.16,4.3,4.3,0,0,1,1.36.34,10.846,10.846,0,0,0,1.2.43h0a.23.23,0,0,1,.162.282l0,.008a.242.242,0,0,1-.19.17,5.729,5.729,0,0,1-1.39-.08c-.43-.06-.84-.09-1.23-.13a6.115,6.115,0,0,0-1.21,0,11.159,11.159,0,0,0-1.27.13h0a.229.229,0,0,1-.259-.2v0A.249.249,0,0,1,24.61,26.143Z" fill="#333"/><path d="M42.1,8.553a38.889,38.889,0,0,1-9.82-3.41,1.328,1.328,0,0,0-1.2,0,39.326,39.326,0,0,1-9.82,3.41,1.368,1.368,0,0,0-.88.62,21.43,21.43,0,0,1-5.45,5.57,1.359,1.359,0,0,0-.217,1.911c.024.031.05.06.077.089l4.45,4.46c2.69-2.14,7.24-3.56,12.43-3.56s9.74,1.42,12.43,3.56l4.45-4.45a1.35,1.35,0,0,0-.035-1.909c-.034-.032-.069-.062-.105-.091A21.512,21.512,0,0,1,43,9.163,1.393,1.393,0,0,0,42.1,8.553Z" fill="#3c495a" stroke="#333" stroke-linecap="round" stroke-linejoin="round" stroke-width="1.5"/><path d="M19.16,21.093c2.49-2.3,7.17-3.85,12.52-3.85s10.06,1.56,12.52,3.85c-2.49,2.3-7.17,3.85-12.52,3.85S21.66,23.383,19.16,21.093Z" fill="#333" stroke="#333" stroke-miterlimit="10" stroke-width="1.5"/><path d="M33.72,14.683,32,15.833l-1.72-1.15A2.85,2.85,0,0,1,29,12.3V9.833A5,5,0,0,0,31.75,9l.25-.17.25.17a5,5,0,0,0,2.75.83V12.3A2.85,2.85,0,0,1,33.72,14.683Z" fill="#ead4ad"/><path d="M32,8.833,31.75,9a5,5,0,0,1-2.75.83V12.3a2.851,2.851,0,0,0,1.22,2.33,6.491,6.491,0,0,0,2.45-5.08v-.33L32.25,9Z" fill="#f2e1c0"/><path d="M33.72,14.683,32,15.833l-1.72-1.15A2.85,2.85,0,0,1,29,12.3V9.833A5,5,0,0,0,31.75,9l.25-.17.25.17a5,5,0,0,0,2.75.83V12.3A2.85,2.85,0,0,1,33.72,14.683Z" fill="none" stroke="#333" stroke-linecap="round" stroke-linejoin="round"/><path d="M32.06,53.563l.21,3a.5.5,0,1,1-1,.06v-.07l.21-3a.29.29,0,0,1,.309-.27h0A.31.31,0,0,1,32.06,53.563Z" fill="#343433"/><polygon fill="#1e4884" points="31.77 48.573 29.62 51.263 30.77 53.563 32.77 53.563 33.92 51.263 31.77 48.573" stroke="#343433" stroke-linejoin="round" stroke-width="1.5"/><path d="M24.77,41.573s1.53,3.51,7,7l-4,5a21.818,21.818,0,0,1-5-8Z" fill="#fff" stroke="#333" stroke-linecap="round" stroke-linejoin="round" stroke-width="1.5"/><path d="M38.77,41.573s-1.53,3.51-7,7l4,5a21.818,21.818,0,0,0,5-8Z" fill="#fff" stroke="#333" stroke-linecap="round" stroke-linejoin="round" stroke-width="1.5"/><path d="M31.81,59.233c1.39,0,2.78,0,4.17-.13,1.42-2.37,4.71-8.56,4.71-14.87l-.89-.18-1.19-2.68a23,23,0,0,1-6.85,6.25,23.439,23.439,0,0,1-6.88-6.25l-1.16,2.68-.89.18c0,6.31,3.29,12.49,4.71,14.87C29,59.193,30.39,59.253,31.81,59.233Z" fill="#fff" stroke="#333" stroke-linecap="round" stroke-linejoin="round" stroke-width="1.34"/><polygon fill="#3467a8" points="31.77 47.623 29.39 50.603 30.88 52.093 32.66 52.093 34.07 50.503 31.77 47.623" stroke="#343433" stroke-linecap="round" stroke-linejoin="round" stroke-width="1.5"/><path d="M24.89,41.373a23.439,23.439,0,0,0,6.88,6.25l-3.57,4.47c-2.68-2.68-4.47-6.25-4.47-8Z" fill="#fff" stroke="#333" stroke-linecap="round" stroke-linejoin="round" stroke-width="1.5"/><path d="M38.62,41.373a23,23,0,0,1-6.85,6.25l3.57,4.47c2.68-2.68,4.47-6.25,4.47-8Z" fill="#fff" stroke="#333" stroke-linecap="round" stroke-linejoin="round" stroke-width="1.5"/><path d="M41.75,58.423l5.14-4.53-1.79-2.68,1.9-1.8-2.68-4.47-3.58-.71c-.05,5.32-3.07,11.7-4.79,14.88A57.055,57.055,0,0,0,41.75,58.423Z" fill="#3c495a" stroke="#343433" stroke-linejoin="round" stroke-width="1.5"/><path d="M16.66,53.893l5.12,4.51a54.244,54.244,0,0,0,5.85.7c-1.71-3.18-4.73-9.55-4.78-14.87l-3.58.71-2.68,4.47,1.86,1.8Z" fill="#3c495a" stroke="#343433" stroke-linejoin="round" stroke-width="1.5"/><path d="M18.18,46.753l-6.06,1.83a3.639,3.639,0,0,0-2.59,2.9L9,54.673a57.575,57.575,0,0,0,22.81,4.56,57.8,57.8,0,0,0,22.74-4.56l-.55-3.2a3.639,3.639,0,0,0-2.58-2.9l-6.06-1.83" fill="none" stroke="#333" stroke-linejoin="round" stroke-width="1.5"/><path d="M31.81,59.233h3c-.88-3-2.13-7.09-2.13-7.09H30.87l-2.13,7.09C29.77,59.223,30.79,59.243,31.81,59.233Z" fill="#3467a8" stroke="#333" stroke-miterlimit="10" stroke-width="1.5"/><path d="M32,52.093l.19,2.68a.451.451,0,1,1-.9.06h0v-.06l.19-2.68a.26.26,0,0,1,.278-.24h0A.25.25,0,0,1,32,52.093Z" fill="#343433"/><path d="M33.07,34.6c-.36,0-.56.28-1,.28s-.64-.28-1-.28c-.63,0-1.67,1-2,1.4l.93.81a2.23,2.23,0,0,0,1.56.55h1a2.23,2.23,0,0,0,1.56-.55l.93-.81C34.74,35.623,33.7,34.6,33.07,34.6Z" fill="#bc9995"/><path d="M35.06,36a3.534,3.534,0,0,0-1.44-.3c-.95,0-1,.19-1.56.19a8.035,8.035,0,0,0-1.56-.19,3.751,3.751,0,0,0-1.44.3" fill="none" stroke="#a37878" stroke-linecap="round" stroke-miterlimit="10" stroke-width="0.5"/></g></g></g></g></svg>