<?xml version="1.0" encoding="UTF-8"?><svg enable-background="new 0 0 24 24" version="1.1" viewBox="0 0 24 24" xml:space="preserve" xmlns="http://www.w3.org/2000/svg"><g transform="translate(-24.351 .39775)"><linearGradient id="a" x1="4.1758" x2="21.21" y1="8.6041" y2="16.547" gradientUnits="userSpaceOnUse"><stop stop-color="#fff" stop-opacity=".2" offset="0"/><stop stop-color="#fff" stop-opacity="0" offset="1"/></linearGradient></g><path d="m3.4606 11.456c-0.29958 1.3053-0.46062 2.5302-0.46062 3.5483 0 4.96 4.0376 8.9956 9 8.9956 4.9624 0 9-4.0356 9-8.9956 0-1.0331-0.16582-2.2791-0.47395-3.606l-2.075-0.71126-1.9556 1.5646-1.4031-1.1662-1.7347 1.1769-1.8783-1.4521-2.3643 1.6536-1.9556-1.3963-2.1655 0.8034z" fill="#303c42"/><path d="m19.71 12.315c0.18739 0.96548 0.28959 1.8782 0.28959 2.6772 0 0.59399-0.070068 1.1711-0.1936 1.7285-0.29968 0.16223-0.61432 0.27881-1.1443 0.27881-0.69629 0-1.0122-0.18945-1.4126-0.4292-0.44678-0.26758-0.95312-0.5708-1.9258-0.5708-0.97168 0-1.4775 0.30371-1.9238 0.57129-0.39892 0.23975-0.71436 0.42871-1.4087 0.42871s-1.0098-0.18896-1.4087-0.42871c-0.44629-0.26758-0.95166-0.57129-1.9233-0.57129-0.97168 0-1.4771 0.30371-1.9233 0.57129-0.39893 0.23975-0.71387 0.42871-1.4082 0.42871-0.52606 0-0.83752-0.11505-1.1331-0.27502-0.12408-0.55853-0.19458-1.137-0.19458-1.7323 0-0.81021 0.1051-1.7374 0.29755-2.7179l0.77388 0.4216 2.1748-0.78928 1.9038 1.4084 2.4268-1.6403 1.9095 1.4634 1.6283-1.1669 1.4903 1.1752 2.0416-1.5523z" fill="#fff"/><path d="m12 22.988c-3.3785 0-6.268-2.1073-7.4388-5.0731 0.22375 0.048645 0.46753 0.084839 0.76648 0.084839 0.97119 0 1.4771-0.30371 1.9229-0.57129 0.39893-0.23975 0.71436-0.42871 1.4087-0.42871s1.0098 0.18896 1.4087 0.42871c0.44629 0.26758 0.95166 0.57129 1.9233 0.57129s1.4771-0.30371 1.9233-0.57129c0.39893-0.23926 0.71436-0.42871 1.4092-0.42871 0.69629 0 1.0122 0.18945 1.4121 0.42871 0.44678 0.26807 0.95312 0.57129 1.9263 0.57129 0.30347 0 0.55066-0.037231 0.77759-0.087219-1.1702 2.9672-4.0603 5.0755-7.4397 5.0755z" fill="#e82c2a"/><path d="m18.985 11.827c0.009841 0.056306 0.014972 0.11423 0.014972 0.17336 0 0.55228-0.44772 1-1 1-0.30101 0-0.57095-0.13299-0.75428-0.34342l1.4008-1.062z" fill="#e82c2a"/><path d="m17.845 11.168c0.10115 0.66429 0.15452 1.2844 0.15452 1.8361 0 1.2648-0.30334 2.4573-0.82874 3.5215 0.02521 0.01502 0.05347 0.03003 0.07825 0.04486 0.40039 0.23975 0.7163 0.4292 1.4126 0.4292 0.52997 0 0.8446-0.11658 1.1443-0.27881 0.12354-0.55737 0.1936-1.1345 0.1936-1.7285 0-1.1496-0.2116-2.5348-0.58407-3.9736l-0.96489-0.33193z" opacity=".1"/><path d="m10 21c-1.6637 0-3.2097-0.51123-4.491-1.3834 1.4505 2.0316 3.8087 3.3716 6.491 3.3716 3.3794 0 6.2695-2.1083 7.4397-5.0755-0.22693 0.049988-0.47412 0.087219-0.77759 0.087219-0.97314 0-1.4795-0.30322-1.9263-0.57129-0.019775-0.011841-0.038269-0.021606-0.057678-0.033203-1.4324 2.1686-3.8893 3.6045-6.6782 3.6045z" opacity=".1"/><linearGradient x1="4.1758" x2="21.21" y1="8.6041" y2="16.547" gradientUnits="userSpaceOnUse"><stop stop-color="#fff" stop-opacity=".2" offset="0"/><stop stop-color="#fff" stop-opacity="0" offset="1"/></linearGradient><path d="m7 12c0 0.55228-0.44772 1-1 1-0.30899 0-0.58525-0.14014-0.76868-0.36033" fill="#e82c2a"/><path d="m12.795 12.607c-0.18274 0.23896-0.47079 0.3931-0.79484 0.3931-0.5325 0-0.96778-0.41621-0.99829-0.94105l0.57512-0.38376z" fill="#e82c2a"/><path d="m3.4606 11.456c-0.29958 1.3053-0.46062 2.5302-0.46062 3.5483 0 4.96 4.0376 8.9956 9 8.9956 4.9624 0 9-4.0356 9-8.9956 0-1.0331-0.16582-2.2791-0.47395-3.606l-2.075-0.71126-1.9556 1.5646-1.4031-1.1662-1.7347 1.1769-1.8783-1.4521-2.3643 1.6536-1.9556-1.3963-2.1655 0.8034z" fill="url(#a)"/></svg>