<?xml version="1.0" encoding="UTF-8"?><svg enable-background="new 0 0 24 24" version="1.1" viewBox="0 0 24 24" xml:space="preserve" xmlns="http://www.w3.org/2000/svg"><defs><linearGradient id="a" x1="4.1758" x2="21.21" y1="8.6041" y2="16.547" gradientUnits="userSpaceOnUse"><stop stop-color="#fff" stop-opacity=".2" offset="0"/><stop stop-color="#fff" stop-opacity="0" offset="1"/></linearGradient></defs><path d="m20.734 12.397c-0.95884-5.235-4.4103-12.397-8.7339-12.397-4.269 0-7.6877 6.9823-8.6964 12.198l1.7678 0.49854 2.1748-0.78928 1.9038 1.4084 2.4268-1.6403 1.9095 1.4634 1.6283-1.1669 1.4903 1.1752 2.0416-1.5523z" fill="#303c42"/><path d="m12 0.98828c1.8687 0 3.8955 1.8613 5.5605 5.1064 0.01373 0.026733 0.02576 0.055664 0.03937 0.08252-0.33441 0.11078-0.60004 0.25714-0.83673 0.39648-0.40479 0.23828-0.7251 0.42627-1.4224 0.42627-0.69434 0-1.0098-0.18896-1.4087-0.42871-0.44629-0.26758-0.95166-0.57129-1.9233-0.57129s-1.4771 0.30371-1.9233 0.57129c-0.39893 0.23926-0.71436 0.42871-1.4092 0.42871-0.69922 0-1.02-0.18848-1.4263-0.42676-0.23962-0.14056-0.50867-0.28833-0.84839-0.39929 0.013123-0.025818 0.024658-0.053528 0.037842-0.079224 1.665-3.2451 3.6919-5.1064 5.5605-5.1064z" fill="#e82c2a"/><path d="m4.4348 11.63c0.34371-1.4988 0.87476-3.0863 1.5335-4.5484 0.30444 0.077148 0.52747 0.20795 0.77588 0.35358 0.4502 0.26465 0.96094 0.56445 1.9321 0.56445 0.97168 0 1.4775-0.30371 1.9238-0.57129 0.39892-0.23975 0.71436-0.42871 1.4087-0.42871s1.0098 0.18896 1.4087 0.42871c0.44629 0.26758 0.95166 0.57129 1.9233 0.57129 0.96973 0 1.4795-0.2998 1.9292-0.56445 0.24475-0.14398 0.46527-0.27307 0.76318-0.35052 0.59596 1.3234 1.0873 2.7494 1.4299 4.1193l-1.012-0.51722-1.9556 1.5646-1.4031-1.1662-1.7347 1.1769-1.8783-1.4521-2.3643 1.6536-1.9556-1.3963-2.1655 0.8034z" fill="#fff"/><path d="m16.763 6.5737c0.23669-0.13934 0.50232-0.28571 0.83673-0.39648-0.013611-0.026856-0.025635-0.055786-0.039368-0.08252-1.0741-2.0934-2.2989-3.6002-3.5345-4.4137 1.036 1.3832 1.9336 3.1479 2.6103 4.9646 0.04218-0.024292 0.08337-0.046265 0.12689-0.071899z" opacity=".1"/><path d="m5.0087 11.868c0.064682-0.4898 0.48387-0.86782 0.99134-0.86782 0.25419 0 0.48623 0.09484 0.66267 0.25107z" fill="#e82c2a"/><path d="m11.764 11.028c0.075701-0.018323 0.15477-0.028033 0.2361-0.028033 0.55228 0 1 0.44772 1 1z" fill="#e82c2a"/><path d="m17.013 11.836 2e-6 -5e-6c0.07842-0.47406 0.49026-0.83558 0.98655-0.83558 0.01971 0 0.03929 5.7e-4 0.05872 0.0017z" fill="#e82c2a"/><path d="m19.641 11.975c-0.3385-1.5971-0.89931-3.3159-1.608-4.8898-0.29791 0.077454-0.51843 0.20654-0.76318 0.35052-0.09454 0.055603-0.19476 0.11243-0.29834 0.16803 0.52356 1.594 0.87061 3.1704 0.98602 4.4905l0.6888-0.49946z" opacity=".1"/><path d="m20.734 12.397c-0.95884-5.235-4.4103-12.397-8.7339-12.397-4.269 0-7.6877 6.9823-8.6964 12.198l1.7678 0.49854 2.1748-0.78928 1.9038 1.4084 2.4268-1.6403 1.9095 1.4634 1.6283-1.1669 1.4903 1.1752 2.0416-1.5523z" fill="url(#a)"/></svg>