<?xml version="1.0" encoding="UTF-8"?><svg enable-background="new 0 0 24 24" version="1.1" viewBox="0 0 24 24" xml:space="preserve" xmlns="http://www.w3.org/2000/svg"><path d="m12 0c-5.1089 0-9 10-9 15.004 0 4.96 4.0376 8.9956 9 8.9956s9-4.0356 9-8.9956c0-5.0044-3.8911-15.004-9-15.004z" fill="#303C42"/><path d="m6.2749 6.4512 0.96826-0.40875 2.1777 0.91846c0.12402 0.051758 0.26416 0.051758 0.38818 0l2.1812-0.91846 2.1812 0.91846c0.062012 0.025879 0.12793 0.039062 0.19385 0.039062s0.13184-0.013184 0.19385-0.039062l2.1816-0.91846 0.98737 0.41498c0.88959 1.8168 1.5801 3.8801 1.9549 5.7639l-0.56238 0.23621-2.186-0.91846c-0.12402-0.051758-0.26367-0.051758-0.3877 0l-2.1816 0.91846-2.1812-0.91846c-0.12402-0.051758-0.26367-0.051758-0.3877 0l-2.1812 0.91846-2.1777-0.91846c-0.12402-0.051758-0.26465-0.052246-0.38867 4.883e-4l-2.1748 0.91797-0.55719-0.23492c0.37512-1.8862 1.0668-3.9528 1.9581-5.7714z" fill="#fff"/><path d="m12 1c1.6556 0 3.4343 1.4666 4.9766 4.0568l-0.042053-0.0177c-0.12402-0.051758-0.26367-0.051758-0.3877 0l-2.1816 0.91846-2.1812-0.91846c-0.12402-0.051758-0.26367-0.051758-0.3877 0l-2.1812 0.91846-2.1777-0.91846c-0.12402-0.051758-0.26465-0.052246-0.38867 4.883e-4l-0.020813 0.0087891c1.5413-2.5852 3.3181-4.0483 4.972-4.0483z" fill="#f2eb24"/><path d="m12 23c-2.6337 0-4.9672-1.2842-6.4258-3.2531l1.6689-0.70447 2.1777 0.91846c0.12402 0.051758 0.26416 0.051758 0.38818 0l2.1812-0.91846 2.1812 0.91846c0.062012 0.025879 0.12793 0.039063 0.19385 0.039063s0.13184-0.013184 0.19385-0.039062l2.1816-0.91846 1.683 0.70715c-1.4587 1.9673-3.7913 3.2504-6.4238 3.2504z" fill="#fff"/><path d="m18.98 18.899-2.0459-0.85968c-0.12402-0.051758-0.26367-0.051758-0.3877 0l-2.1816 0.91846-2.1812-0.91846c-0.12402-0.051758-0.26367-0.051758-0.3877 0l-2.1812 0.91846-2.1777-0.91846c-0.12402-0.051758-0.26465-0.052246-0.38867 4.883e-4l-2.0306 0.85712c-0.64618-1.1531-1.0182-2.4794-1.0182-3.8923 0-0.54163 0.054626-1.1422 0.14307-1.7695l0.53662 0.22607c0.125 0.051758 0.26465 0.052246 0.38867-4.883e-4l2.1748-0.91797 2.1777 0.91846c0.12402 0.051758 0.26416 0.051758 0.38818 0l2.1812-0.91846 2.1812 0.91846c0.062012 0.025879 0.12793 0.039063 0.19385 0.039063s0.13184-0.013184 0.19385-0.039062l2.1816-0.91846 2.186 0.91846c0.12402 0.051758 0.26367 0.051758 0.3877 0l0.5423-0.22784c0.088623 0.62805 0.14325 1.2292 0.14325 1.7713 0 1.4138-0.37262 2.7408-1.0195 3.8943z" fill="#f2eb24"/><path d="m19.121 12.458 0.56238-0.23621c-0.37476-1.8837-1.0653-3.9471-1.9549-5.7639l-0.98737-0.41498-0.2934 0.12354c0.7951 2.0097 1.3303 4.1 1.4946 5.7963l1.1787 0.49524z" opacity=".1"/><path d="m16.547 5.0391c0.12402-0.051758 0.26367-0.051758 0.3877 0l0.042053 0.0177c-0.91803-1.5417-1.92-2.6741-2.9297-3.3474 0.75775 1.0174 1.4413 2.2346 2.0168 3.5331l0.48322-0.20343z" opacity=".1"/><path d="m5.6594 19.711-0.085144 0.03595c1.4586 1.9688 3.7921 3.2531 6.4258 3.2531 2.6325 0 4.965-1.2831 6.4238-3.2504l-1.683-0.70715-2.1816 0.91846c-0.062012 0.025879-0.12793 0.039062-0.19385 0.039062s-0.13184-0.013184-0.19385-0.039062l-0.14288-0.060181c-1.1849 0.69415-2.5588 1.0992-4.0285 1.0992-1.6002 0-3.0889-0.47693-4.3406-1.289z" opacity=".1"/><path d="m16.547 18.039c0.12402-0.051758 0.26367-0.051758 0.3877 0l2.0459 0.85968c0.64691-1.1536 1.0195-2.4805 1.0195-3.8943 0-0.54211-0.054626-1.1432-0.14325-1.7713l-0.5423 0.22784c-0.12402 0.051758-0.26367 0.051758-0.3877 0l-0.93011-0.39075c-0.016296 1.9893-0.76593 3.8032-1.9879 5.1954l0.53809-0.22656z" opacity=".1"/><linearGradient id="a" x1="4.1758" x2="21.21" y1="8.6041" y2="16.547" gradientUnits="userSpaceOnUse"><stop stop-color="#fff" stop-opacity=".2" offset="0"/><stop stop-color="#fff" stop-opacity="0" offset="1"/></linearGradient><path d="m12 0c-5.1089 0-9 10-9 15.004 0 4.96 4.0376 8.9956 9 8.9956s9-4.0356 9-8.9956c0-5.0044-3.8911-15.004-9-15.004z" fill="url(#a)"/></svg>