<?xml version="1.0" encoding="UTF-8"?><svg enable-background="new 0 0 24 24" version="1.1" viewBox="0 0 24 24" xml:space="preserve" xmlns="http://www.w3.org/2000/svg"><defs><linearGradient id="a" x1="4.1758" x2="21.21" y1="8.6041" y2="16.547" gradientUnits="userSpaceOnUse"><stop stop-color="#fff" stop-opacity=".2" offset="0"/><stop stop-color="#fff" stop-opacity="0" offset="1"/></linearGradient></defs><path d="m20.734 12.397c-0.95884-5.235-4.4103-12.397-8.7339-12.397-4.269 0-7.6877 6.9823-8.6964 12.198l1.7678 0.49854 2.1748-0.78928 1.9038 1.4084 2.4268-1.6403 1.9095 1.4634 1.6283-1.1669 1.4903 1.1752 2.0416-1.5523z" fill="#303c42"/><path d="m4.443 11.633c0.3939-1.7208 1.0327-3.5511 1.8319-5.1819l0.96826-0.40875 2.1777 0.91846c0.12402 0.051758 0.26416 0.051758 0.38818 0l2.1812-0.91846 2.1812 0.91846c0.062011 0.025879 0.12793 0.039062 0.19385 0.039062 0.06592 0 0.13184-0.013184 0.19385-0.039063l2.1816-0.91846 0.98736 0.41498c0.73002 1.4909 1.326 3.1479 1.7234 4.7353l-1.0002-0.50605-1.9556 1.5646-1.4031-1.1662-1.7347 1.1769-1.8783-1.4521-2.3643 1.6536-1.9556-1.3963-2.1655 0.8034z" fill="#fff"/><path d="m12 1c1.6556 0 3.4343 1.4666 4.9766 4.0568l-0.042053-0.0177c-0.12402-0.051758-0.26367-0.051758-0.3877 0l-2.1816 0.91846-2.1812-0.91846c-0.12402-0.051758-0.26367-0.051758-0.3877 0l-2.1812 0.91846-2.1777-0.91846c-0.12402-0.051758-0.26465-0.052246-0.38867 4.883e-4l-0.020813 0.0087891c1.5413-2.5852 3.3181-4.0483 4.972-4.0483z" fill="#f2eb24"/><path d="m19.63 11.965c-0.38486-1.8132-1.0528-3.7725-1.9021-5.5071l-0.98736-0.41498-0.2934 0.12354c0.7951 2.0097 1.3303 4.1 1.4946 5.7963l0.14759 0.06201 0.55712-0.4295" opacity=".1"/><path d="m16.547 5.0391c0.12402-0.051758 0.26367-0.051758 0.3877 0l0.042053 0.0177c-0.91803-1.5417-1.92-2.6741-2.9297-3.3474 0.75775 1.0174 1.4413 2.2346 2.0168 3.5331l0.48322-0.20343z" opacity=".1"/><path d="m20.734 12.396c-0.95919-5.2349-4.4104-12.396-8.7337-12.396-4.269 0-7.6877 6.9823-8.6964 12.198l1.7682 0.49875 2.1748-0.78928 1.9038 1.4084 2.4268-1.6403 1.9095 1.4634 1.6283-1.1669 1.4903 1.1752 2.0413-1.5523z" fill="url(#a)"/></svg>