<?xml version="1.0" encoding="UTF-8"?><svg enable-background="new 0 0 24 24" version="1.1" viewBox="0 0 24 24" xml:space="preserve" xmlns="http://www.w3.org/2000/svg"><path d="m12 0c-5.1089 0-9 10-9 15.004 0 4.96 4.0376 8.9956 9 8.9956s9-4.0356 9-8.9956c0-5.0044-3.8911-15.004-9-15.004z" fill="#303C42"/><path d="m20 15h-16c6.104e-4 -1.421 0.33099-3.2028 0.8811-5h14.237c0.55011 1.7972 0.88049 3.579 0.8811 5z" fill="#fff"/><path d="m12 1c1.8687 0 3.8955 1.8613 5.5605 5.1064 0.46631 0.90912 0.87646 1.8947 1.2286 2.8936h-13.578c0.35217-0.99884 0.76227-1.9844 1.2286-2.8936 1.665-3.2451 3.6919-5.1064 5.5605-5.1064z" fill="#38aa27"/><path d="m12 23c-4.0731 0-7.4382-3.0605-7.9312-7h15.862c-0.49292 3.9395-3.858 7-7.9312 7z" fill="#38aa27"/><path d="m17.738 15h2.2623c-6.104e-4 -1.421-0.33099-3.2028-0.8811-5h-1.4887c0.23981 1.1072 0.37 2.1399 0.37 3.0044 0 0.69012-0.097168 1.3564-0.26245 1.9956z" opacity=".1"/><path d="m18.789 9c-0.35217-0.99884-0.76233-1.9844-1.2286-2.8936-1.0698-2.0849-2.2889-3.589-3.5194-4.4048 1.4781 1.9816 2.6696 4.7496 3.3447 7.2984h1.4034z" opacity=".1"/><path d="m10 21c-1.6877 0-3.2526-0.52814-4.5446-1.4234 1.446 2.0655 3.8358 3.4234 6.5446 3.4234 4.0731 0 7.4382-3.0605 7.9312-7h-2.5192c-1.189 2.9277-4.061 5-7.412 5z" opacity=".1"/><linearGradient id="a" x1="4.1758" x2="21.21" y1="8.6041" y2="16.547" gradientUnits="userSpaceOnUse"><stop stop-color="#fff" stop-opacity=".2" offset="0"/><stop stop-color="#fff" stop-opacity="0" offset="1"/></linearGradient><path d="m12 0c-5.1089 0-9 10-9 15.004 0 4.96 4.0376 8.9956 9 8.9956s9-4.0356 9-8.9956c0-5.0044-3.8911-15.004-9-15.004z" fill="url(#a)"/></svg>