<?xml version="1.0" encoding="UTF-8"?><svg enable-background="new 0 0 24 24" version="1.1" viewBox="0 0 24 24" xml:space="preserve" xmlns="http://www.w3.org/2000/svg"><defs><linearGradient id="a" x1="4.1758" x2="21.21" y1="8.6041" y2="16.547" gradientUnits="userSpaceOnUse"><stop stop-color="#fff" stop-opacity=".2" offset="0"/><stop stop-color="#fff" stop-opacity="0" offset="1"/></linearGradient></defs><path d="m3.4606 11.46c-0.29958 1.3053-0.46062 2.5302-0.46062 3.5483 0 4.96 4.0376 8.9956 9 8.9956s9-4.0356 9-8.9956c0-1.0331-0.16582-2.2791-0.47395-3.606l-2.075-0.71126-1.9556 1.5646-1.4031-1.1662-1.7347 1.1769-1.8783-1.4521-2.3643 1.6536-1.9556-1.3963-2.1655 0.8034z" fill="#303c42"/><path d="m4.3024 12.282c-0.19433 0.98066-0.30186 1.9081-0.30221 2.7182h16c-3.45e-4 -0.80166-0.10564-1.7182-0.29614-2.6874l-1.0575-0.71441-2.0416 1.5523-1.4903-1.1752-1.6283 1.1669-1.9095-1.4634-2.4268 1.6403-1.9038-1.4084-2.1748 0.78928z" fill="#fff"/><path d="m12 23c-4.0731 0-7.4382-3.0605-7.9312-7h15.862c-0.49292 3.9395-3.858 7-7.9312 7z" fill="#38aa27"/><path d="m19.407 11.017c0.3753 1.4421 0.59252 2.8312 0.59301 3.9832h-2.2623c0.16528-0.63922 0.26245-1.3055 0.26245-1.9956 0-0.54935-0.05257-1.1666-0.15243-1.8278l0.60349-0.48557z" opacity=".1"/><path d="m10 21c-1.6877 0-3.2526-0.52814-4.5446-1.4234 1.446 2.0655 3.8358 3.4234 6.5446 3.4234 4.0731 0 7.4382-3.0605 7.9312-7h-2.5192c-1.189 2.9277-4.061 5-7.412 5z" opacity=".1"/><path d="m20.526 11.398c0.30821 1.3271 0.47407 2.5733 0.47407 3.6065 0 4.96-4.0376 8.9956-9 8.9956-4.9624 0-9-4.0356-9-8.9956 0-1.0179 0.16098-2.2424 0.46043-3.5475l1.5335 0.41804 2.1655-0.8034 1.9556 1.3963 2.3643-1.6536 1.8783 1.4521 1.7347-1.1769 1.4031 1.1662 1.9556-1.5646z" fill="url(#a)"/></svg>