<?xml version="1.0" encoding="UTF-8"?><svg enable-background="new 0 0 24 24" version="1.1" viewBox="0 0 24 24" xml:space="preserve" xmlns="http://www.w3.org/2000/svg"><defs><linearGradient id="a" x1="4.1758" x2="21.21" y1="8.6041" y2="16.547" gradientUnits="userSpaceOnUse"><stop stop-color="#fff" stop-opacity=".2" offset="0"/><stop stop-color="#fff" stop-opacity="0" offset="1"/></linearGradient></defs><path d="m20.734 12.409c-0.95884-5.235-4.4103-12.397-8.7339-12.397-4.269 0-7.6877 6.9823-8.6964 12.198l1.7678 0.49854 2.1748-0.78928 1.9038 1.4084 2.4268-1.6403 1.9095 1.4634 1.6283-1.1669 1.4903 1.1752 2.0416-1.5523z" fill="#303c42"/><path d="m19.464 11.242c-0.10246-0.41026-0.21807-0.82562-0.34547-1.2418h-14.237c-0.16926 0.55297-0.31772 1.1045-0.44218 1.6445l0.55485 0.23787 2.1655-0.8034 1.9556 1.3963 2.3643-1.6536 1.8783 1.4521 1.7347-1.1769 1.4031 1.1662 1.9556-1.5646z" fill="#fff"/><path d="m12 1c1.8687 0 3.8955 1.8613 5.5605 5.1064 0.46631 0.90912 0.87646 1.8947 1.2286 2.8936h-13.578c0.35217-0.99884 0.76227-1.9844 1.2286-2.8936 1.665-3.2451 3.6919-5.1064 5.5605-5.1064z" fill="#38aa27"/><path d="m19.636 11.983c-0.13823-0.64709-0.3126-1.3141-0.51743-1.9833h-1.4887c0.16395 0.75698 0.27666 1.4791 0.33156 2.1364l0.68503-0.52997z" opacity=".1"/><path d="m18.789 9c-0.35217-0.99884-0.76233-1.9844-1.2286-2.8936-1.0698-2.0849-2.2889-3.589-3.5194-4.4048 1.4781 1.9816 2.6696 4.7496 3.3447 7.2984z" opacity=".1"/><path d="m20.738 12.418c-0.95353-5.2368-4.4084-12.418-8.7377-12.418-4.2707 0-7.6904 6.9878-8.6976 12.204l1.7691 0.50428 2.1748-0.78928 1.9038 1.4084 2.4268-1.6403 1.9095 1.4634 1.6283-1.1669 1.4903 1.1752 2.0416-1.5523z" fill="url(#a)"/></svg>