<?xml version="1.0" encoding="UTF-8"?><svg enable-background="new 0 0 24 24" version="1.1" viewBox="0 0 24 24" xml:space="preserve" xmlns="http://www.w3.org/2000/svg"><path d="m12 0c-5.1089 0-9 10-9 15.004 0 4.96 4.0376 8.9956 9 8.9956s9-4.0356 9-8.9956c0-5.0044-3.8911-15.004-9-15.004z" fill="#303C42"/><path d="m12 0.98828c1.8687 0 3.8955 1.8613 5.5605 5.1064 0.013733 0.026733 0.025757 0.055664 0.039368 0.08252-0.33441 0.11078-0.60004 0.25714-0.83673 0.39648-0.40479 0.23828-0.7251 0.42627-1.4224 0.42627-0.69434 0-1.0098-0.18896-1.4087-0.42871-0.44629-0.26758-0.95166-0.57129-1.9233-0.57129s-1.4771 0.30371-1.9233 0.57129c-0.39893 0.23926-0.71436 0.42871-1.4092 0.42871-0.69922 0-1.02-0.18848-1.4263-0.42676-0.23962-0.14056-0.50867-0.28833-0.84839-0.39929 0.013123-0.025818 0.024658-0.053528 0.037842-0.079224 1.665-3.2451 3.6919-5.1064 5.5605-5.1064z" fill="#3252aa"/><path d="m5.9683 7.082c0.30444 0.077148 0.52747 0.20795 0.77588 0.35358 0.4502 0.26465 0.96094 0.56445 1.9321 0.56445 0.97168 0 1.4775-0.30371 1.9238-0.57129 0.39893-0.23975 0.71436-0.42871 1.4087-0.42871s1.0098 0.18896 1.4087 0.42871c0.44629 0.26758 0.95166 0.57129 1.9233 0.57129 0.96973 0 1.4795-0.2998 1.9292-0.56445 0.24475-0.14398 0.46527-0.27307 0.76318-0.35052 1.1929 2.6491 1.9668 5.7092 1.9668 7.9077 0 0.59399-0.070068 1.1711-0.1936 1.7285-0.29968 0.16223-0.61432 0.27881-1.1443 0.27881-0.69629 0-1.0122-0.18945-1.4126-0.4292-0.44678-0.26758-0.95312-0.5708-1.9258-0.5708-0.97168 0-1.4775 0.30371-1.9238 0.57129-0.39893 0.23975-0.71436 0.42871-1.4087 0.42871s-1.0098-0.18896-1.4087-0.42871c-0.44629-0.26758-0.95166-0.57129-1.9233-0.57129-0.97168 0-1.4771 0.30371-1.9233 0.57129-0.39893 0.23975-0.71387 0.42871-1.4082 0.42871-0.52606 0-0.83752-0.11505-1.1331-0.27502-0.12408-0.55853-0.19458-1.137-0.19458-1.7323 0-2.1993 0.77448-5.2609 1.9683-7.9107z" fill="#fff"/><path d="m12 22.988c-3.3785 0-6.268-2.1073-7.4388-5.0731 0.22375 0.048645 0.46753 0.084839 0.76648 0.084839 0.97119 0 1.4771-0.30371 1.9229-0.57129 0.39893-0.23975 0.71436-0.42871 1.4087-0.42871s1.0098 0.18896 1.4087 0.42871c0.44629 0.26758 0.95166 0.57129 1.9233 0.57129s1.4771-0.30371 1.9233-0.57129c0.39893-0.23926 0.71436-0.42871 1.4092-0.42871 0.69629 0 1.0122 0.18945 1.4121 0.42871 0.44678 0.26807 0.95312 0.57129 1.9263 0.57129 0.30347 0 0.55066-0.037231 0.77759-0.087219-1.1702 2.9672-4.0603 5.0755-7.4397 5.0755z" fill="#3252aa"/><path d="m16.763 6.5737c0.23669-0.13934 0.50232-0.28571 0.83673-0.39648-0.013611-0.026856-0.025635-0.055786-0.039368-0.08252-1.0741-2.0934-2.2989-3.6002-3.5345-4.4137 1.0359 1.3832 1.9336 3.1479 2.6103 4.9646 0.042175-0.024292 0.083374-0.046265 0.12689-0.071899z" opacity=".1"/><circle cx="6" cy="12" r="1" fill="#3252aa"/><circle cx="12" cy="12" r="1" fill="#3252aa"/><circle cx="18" cy="12" r="1" fill="#3252aa"/><path d="m17.171 16.526c0.025208 0.015015 0.053467 0.030029 0.078247 0.044861 0.40039 0.23975 0.71631 0.4292 1.4126 0.4292 0.52997 0 0.8446-0.11658 1.1443-0.27881 0.12354-0.55737 0.1936-1.1345 0.1936-1.7285 0-2.1985-0.77386-5.2585-1.9668-7.9077-0.29791 0.077454-0.51843 0.20654-0.76318 0.35052-0.094544 0.055603-0.19476 0.11243-0.29834 0.16803 0.65033 1.98 1.0283 3.9327 1.0283 5.4008 0 1.2648-0.30334 2.4573-0.82874 3.5215z" opacity=".1"/><path d="m10 21c-1.6637 0-3.2097-0.51123-4.491-1.3834 1.4505 2.0316 3.8087 3.3716 6.491 3.3716 3.3794 0 6.2695-2.1083 7.4397-5.0755-0.22693 0.049988-0.47412 0.087219-0.77759 0.087219-0.97314 0-1.4795-0.30322-1.9263-0.57129-0.019775-0.011841-0.038269-0.021606-0.057678-0.033203-1.4324 2.1686-3.8893 3.6045-6.6782 3.6045z" opacity=".1"/><linearGradient id="a" x1="4.1758" x2="21.21" y1="8.6041" y2="16.547" gradientUnits="userSpaceOnUse"><stop stop-color="#fff" stop-opacity=".2" offset="0"/><stop stop-color="#fff" stop-opacity="0" offset="1"/></linearGradient><path d="m12 0c-5.1089 0-9 10-9 15.004 0 4.96 4.0376 8.9956 9 8.9956s9-4.0356 9-8.9956c0-5.0044-3.8911-15.004-9-15.004z" fill="url(#a)"/></svg>