<?xml version="1.0" encoding="UTF-8"?><svg enable-background="new 0 0 24 24" version="1.1" viewBox="0 0 24 24" xml:space="preserve" xmlns="http://www.w3.org/2000/svg"><defs><linearGradient id="a" x1="4.1758" x2="21.21" y1="8.6041" y2="16.547" gradientUnits="userSpaceOnUse"><stop stop-color="#fff" stop-opacity=".2" offset="0"/><stop stop-color="#fff" stop-opacity="0" offset="1"/></linearGradient></defs><path d="m3.4606 11.456c-0.29958 1.3053-0.46062 2.5302-0.46062 3.5483 0 4.96 4.0376 8.9956 9 8.9956s9-4.0356 9-8.9956c0-1.0331-0.16582-2.2791-0.47395-3.606l-2.075-0.71126-1.9556 1.5646-1.4031-1.1662-1.7347 1.1769-1.8783-1.4521-2.3643 1.6536-1.9556-1.3963-2.1655 0.8034z" fill="#303c42"/><g transform="translate(-.00039 -.012205)"><path d="m18.647 11.607 0.94738 0.65144-0.47366 0.19894-1.0216-0.42924z" fill="#fff"/><path d="m12 23c-2.6337 0-4.9672-1.2842-6.4258-3.2531l1.6689-0.70447 2.1777 0.91846c0.12402 0.05176 0.26416 0.05176 0.38818 0l2.1812-0.91846 2.1812 0.91846c0.062011 0.025879 0.12793 0.039063 0.19385 0.039063 0.06592 0 0.13184-0.01318 0.19385-0.03906l2.1816-0.91846 1.683 0.70715c-1.4587 1.9673-3.7913 3.2504-6.4238 3.2504z" fill="#fff"/><path d="m18.98 18.899-2.0459-0.85968c-0.12402-0.05176-0.26367-0.05176-0.3877 0l-2.1816 0.91846-2.1812-0.91846c-0.12402-0.05176-0.26367-0.05176-0.3877 0l-2.1812 0.91846-2.1777-0.91846c-0.12402-0.05176-0.26465-0.05225-0.38867 4.89e-4l-2.0306 0.85712c-0.64618-1.1531-1.0182-2.4794-1.0182-3.8923 0-0.54163 0.054626-1.1422 0.14307-1.7695l0.53662 0.22608c0.125 0.05176 0.26465 0.05225 0.38867-4.89e-4l2.1748-0.91797 2.1777 0.91846c0.12402 0.05176 0.26416 0.05176 0.38818 0l2.1812-0.91846 2.1812 0.91846c0.06201 0.02588 0.12793 0.03906 0.19385 0.03906 0.06592 0 0.13184-0.01318 0.19385-0.03906l2.1816-0.91846 2.186 0.91846c0.12402 0.05176 0.26367 0.05176 0.3877 0l0.5423-0.22784c0.088622 0.62805 0.14325 1.2292 0.14325 1.7713 0 1.4138-0.37262 2.7408-1.0195 3.8943z" fill="#903789"/><path d="m15.115 11.983 0.12785 0.10479-0.66266 0.27898z" fill="#fff"/></g><g transform="translate(-.00039 -.012205)"><path d="m18.451 10.699-0.6055 0.4921c0.03975 0.26446 0.07185 0.52194 0.09597 0.77093l1.1787 0.49524 0.56238-0.23621c-0.07883-0.39626-0.17164-0.80047-0.27734-1.2087z" opacity=".1"/><path d="m5.6594 19.711-0.085144 0.03595c1.4586 1.9688 3.7921 3.2531 6.4258 3.2531 2.6325 0 4.965-1.2831 6.4238-3.2504l-1.683-0.70715-2.1816 0.91846c-0.062012 0.025879-0.12793 0.039063-0.19385 0.039063-0.06592 0-0.13184-0.01318-0.19385-0.03906l-0.14288-0.06018c-1.1849 0.69415-2.5588 1.0992-4.0285 1.0992-1.6002 0-3.0889-0.47693-4.3406-1.289z" opacity=".1"/><path d="m16.547 18.039c0.12402-0.05176 0.26367-0.05176 0.3877 0l2.0459 0.85968c0.64691-1.1536 1.0195-2.4805 1.0195-3.8943 0-0.54212-0.05463-1.1432-0.14325-1.7713l-0.5423 0.22784c-0.12402 0.05176-0.26367 0.05176-0.3877 0l-0.93012-0.39075c-0.0163 1.9893-0.76593 3.8032-1.9879 5.1954z" opacity=".1"/><path d="m20.528 11.407c0.30689 1.3238 0.47202 2.5668 0.47202 3.5977 0 4.96-4.0376 8.9956-9 8.9956-4.9624 0-9-4.0356-9-8.9956 0-1.0161 0.16041-2.2381 0.45884-3.5405l1.5355 0.41928 2.1655-0.8034 1.9556 1.3963 2.3643-1.6536 1.8783 1.4521 1.7347-1.1769 1.4031 1.1662 1.9556-1.5646z" fill="url(#a)"/></g></svg>