<?xml version="1.0" encoding="UTF-8"?><svg height="18" version="1.1" viewBox="0 0 18 18" width="18" xmlns="http://www.w3.org/2000/svg" xmlns:svg="http://www.w3.org/2000/svg"><title/><desc/><defs/><g fill="none" fill-rule="evenodd" stroke="none" stroke-width="1" transform="matrix(0.31034483,0,0,0.31168831,0,-0.03896104)"><g fill-rule="nonzero" ><ellipse cx="29" cy="29" fill="#67b9cc" rx="29" ry="28.875"/><path d="M 29,54.875 C 14.725862,54.806208 3.2036724,43.191097 3.2495336,28.916867 3.2953947,14.642637 14.891982,3.1018034 29.166266,3.1247339 43.440551,3.1476643 55,14.725697 55,29 54.949239,43.318106 43.318184,54.893242 29,54.875 Z M 29,5.125 C 15.830424,5.1937686 5.203638,15.913444 5.2494847,29.083119 5.2953314,42.252795 15.996495,52.898223 29.16623,52.875298 42.335965,52.852374 53.000002,42.169755 53,29 52.950323,15.786015 42.214065,5.1056742 29,5.125 Z" fill="#2980ba"/><path d="m 28,31.95 -7.91,5.48 c -0.21422,0.145405 -0.491325,0.160289 -0.719888,0.03867 C 19.141549,37.347048 18.999082,37.108905 19,36.85 v -15.7 c -9.18e-4,-0.258905 0.141549,-0.497048 0.370112,-0.618669 C 19.598675,20.40971 19.87578,20.424595 20.09,20.57 L 28,26.05" fill="#285680"/><path d="m 28,21.15481 v 15.69038 c -10e-6,0.260966 0.144853,0.500365 0.376037,0.621433 0.231184,0.121068 0.510466,0.103789 0.724963,-0.04485 L 40.41355,29.58309 C 40.6048,29.450565 40.718902,29.232678 40.718902,29 c 0,-0.232678 -0.114102,-0.450565 -0.305352,-0.58309 L 29.101,20.57823 C 28.886503,20.429588 28.607221,20.412309 28.376037,20.533377 28.144853,20.654445 27.99999,20.893844 28,21.15481 Z" fill="#2980ba"/></g></g></svg>