<?xml version="1.0" encoding="UTF-8"?><svg height="18" version="1.1" width="18" xmlns="http://www.w3.org/2000/svg" xmlns:svg="http://www.w3.org/2000/svg"><g transform="matrix(0.75,0,0,0.75,0,-771.3)"><path d="M 22,12 C 22,17.523 17.523,22 12,22 6.4772,22 2,17.523 2,12 2,6.4772 6.4772,2 12,2 17.523,2 22,6.4772 22,12 Z" fill="#27ae60" transform="translate(0,1029.4)"/><path d="M 22,12 C 22,17.523 17.523,22 12,22 6.4772,22 2,17.523 2,12 2,6.4772 6.4772,2 12,2 17.523,2 22,6.4772 22,12 Z" fill="#2ecc71" transform="translate(0,1028.4)"/><path d="M 6.0001,1042.4 H 11 v 5 h 2 v -5 h 5 v -2 h -5 v -5 h -2 v 5 H 6.0001 Z" fill="#27ae60"/><path d="m 6,1041.4 h 5 v 5 h 2 v -5 h 5 v -2 h -5 v -5 h -2 v 5 H 6 Z" fill="#ecf0f1"/></g></svg>