<?xml version="1.0" encoding="UTF-8"?><svg height="18" version="1.1" viewBox="0 0 18 18" width="18" xmlns="http://www.w3.org/2000/svg" xmlns:svg="http://www.w3.org/2000/svg"><g fill="none" fill-rule="evenodd" stroke="none" stroke-width="1" transform="matrix(0.31034483,0,0,0.31168831,0,-0.03896104)"><g fill-rule="nonzero" ><ellipse cx="29" cy="29" fill="#b49aca" rx="29" ry="28.875"/><path d="M 29,54.875 C 14.725862,54.806208 3.2036724,43.191097 3.2495336,28.916867 3.2953947,14.642637 14.891982,3.1018034 29.166266,3.1247339 43.440551,3.1476643 55,14.725697 55,29 54.949239,43.318106 43.318184,54.893242 29,54.875 Z M 29,5.125 C 15.830424,5.1937686 5.203638,15.913444 5.2494847,29.083119 5.2953314,42.252795 15.996495,52.898223 29.16623,52.875298 42.335965,52.852374 53.000002,42.169755 53,29 52.950323,15.786015 42.214065,5.1056742 29,5.125 Z" fill="#804169"/><rect fill="#804169" height="20" rx="2" width="6" x="20" y="19"/><rect fill="#804169" height="20" rx="2" width="6" x="32" y="19"/></g></g></svg>