<?xml version="1.0" encoding="UTF-8"?><svg xmlns:dc="http://purl.org/dc/elements/1.1/" xmlns:cc="http://creativecommons.org/ns#" xmlns:rdf="http://www.w3.org/1999/02/22-rdf-syntax-ns#" xmlns:svg="http://www.w3.org/2000/svg" xmlns="http://www.w3.org/2000/svg" enable-background="new 0 0 496.158 496.158" version="1.1" viewBox="0 0 496.158 496.158" width="496.16" height="496.16"> <defs> <clipPath id="a"> <rect x="338.94" y="192.89" width="504.7" height="338.2" rx="11.339" ry="11.339" fill="#52c1e9" stroke="#000" stroke-linecap="square" stroke-width="10"/> </clipPath> <clipPath id="c"> <path d="m692.31 33.575c158.13 235.38 17.376 300.85-123.92 300.75-187-0.13294-204.89-126.15-103.3-302.77" fill="none" stroke="#000" stroke-width="2.4198"/> </clipPath> <clipPath id="b"> <path d="m473.37 26.78c-159.93 234.16-19.67 300.72 121.62 301.69 187 1.2934 205.85-124.59 105.61-301.98" fill="none" stroke="#000" stroke-width="2.4198"/> </clipPath> </defs> <g transform="matrix(.5039 .2372 -.2372 .5039 484.14 212.13)"> <g transform="matrix(.68188 -.006052 .006052 .68188 -1041.2 144.87)" clip-path="url(#c)"> <rect x="399.89" y="1.8648" width="365.7" height="494.29" rx="11.339" ry="11.339" fill="#5060ac"/> <rect x="399.89" y="1.8648" width="365.7" height="494.29" rx="11.339" ry="11.339" clip-path="url(#a)" fill="#fff"/> <text x="585.61108" y="155.39037" dominant-baseline="auto" fill="white" font-family="sans-serif" font-size="16px" text-align="center" text-anchor="middle"> <tspan x="585.61108" y="155.39037" font-size="133.33px">4</tspan> </text> <text x="581.59412" y="256.82001" dominant-baseline="auto" fill="#000000" font-family="Calibri" font-size="16.474px" stroke-width="1.0296" text-align="center" text-anchor="middle"> <tspan x="581.59412" y="256.82001" font-family="sans-serif" font-size="30.202px" stroke-width="1.0296" text-align="center" text-anchor="middle"> <tspan style="font-size:30.20199966px;font-family:sans-serif;text-align:center;text-anchor:middle;stroke-width:1.02960002" text-align="center" font-size="30.202px" y="256.82001" x="581.59412"> Hyllie - Kristianstad </tspan> </tspan> </text> </g> <ellipse transform="scale(-1,1)" cx="645.56" cy="156.34" rx="85.533" ry="17.308" fill="#fff" stroke="#000" stroke-linecap="square" stroke-width="1.6501"/> <path d="m-568.96 163.57c109.25 159.54 13.669 205.04-82.679 205.83-127.52 1.0411-140.47-84.782-72.272-205.83" fill="none" stroke="#000" stroke-width="1.6501"/> <path d="m-743.42 202.17c-36.238-19.212-52.502-9.5329-57.545 3.5304-8.5855 22.241-19.12 51.18 36.73 90.206" fill="none" stroke="#000" stroke-width="1.6501"/> <path d="m-735.75 186.06c-54.763-27.6-76.434-12.41-85.011 5.939-18.178 38.89-19.163 91.239 67.551 138.05" fill="none" stroke="#000" stroke-width="1.6501"/> <path d="m-534.05 225.36c15.052 13.246 13.935 9.4948 21.223-1.2575 11.474-16.928 21.799-59.449 39.847-70.364" fill="none" stroke="#000" stroke-width="1.6501"/> <path d="m-523.28 304.94c31.264-14.491 49.593-32.957 52.036-65.045 2.4433-32.088 10.052-63.222 37.003-83.257" fill="none" stroke="#000" stroke-width="1.6501"/> <ellipse transform="matrix(-.99815 -.06084 -.032158 .99948 0 0)" cx="448.26" cy="182.09" rx="19.596" ry="2.9003" fill="#fff" stroke="#000" stroke-linecap="square" stroke-width="1.6504"/> <path d="m-626.2 149.71-1.5e-4 -31.8h-37.581v31.8" fill="#fff" stroke="#000" stroke-width="1.6501"/></g><g transform="matrix(.53109 -.1677 .1677 .53109 171.38 157.95)"> <g transform="matrix(.6819 .00085077 -.00085077 .6819 -59.294 80.985)" clip-path="url(#b)"> <rect x="399.89" y="1.8648" width="365.7" height="494.29" rx="11.339" ry="11.339" fill="#04a64a"/> <rect x="399.89" y="1.8648" width="365.7" height="494.29" rx="11.339" ry="11.339" clip-path="url(#a)" fill="#fff"/> <text x="585.61108" y="155.39037" dominant-baseline="auto" fill="white" font-family="sans-serif" font-size="16px" text-align="center" text-anchor="middle"> <tspan x="585.61108" y="155.39037" font-size="133.33px">18</tspan> </text> <text x="581.59412" y="256.82001" dominant-baseline="auto" fill="#000000" font-family="Calibri" font-size="16.474px" stroke-width="1.0296" text-align="center" text-anchor="middle"> <tspan x="581.59412" y="256.82001" font-family="sans-serif" font-size="30.202px" stroke-width="1.0296" text-align="center" text-anchor="middle"> <tspan style="font-size:30.20199966px;font-family:sans-serif;text-align:center;text-anchor:middle;stroke-width:1.02960002" text-align="center" font-size="30.202px" y="256.82001" x="581.59412"> Hässelby Strand - </tspan> <tspan style="font-size:30.20199966px;font-family:sans-serif;text-align:center;text-anchor:middle;stroke-width:1.02960002" text-align="center" font-size="30.202px" y="304.84415" x="581.59412"> Farsta Strand </tspan> </tspan> </text> </g> <path d="m263.47 99.649c-109.25 159.54-13.669 205.04 82.679 205.83 127.52 1.0411 140.47-84.782 72.272-205.83" fill="none" stroke="#000" stroke-width="1.6501"/> <ellipse cx="340.08" cy="92.421" rx="85.533" ry="17.308" fill="#fff" stroke="#000" stroke-linecap="square" stroke-width="1.6501"/> <path d="m437.94 138.24c36.238-19.212 52.502-9.5329 57.545 3.5304 8.5855 22.241 19.12 51.18-36.73 90.206" fill="none" stroke="#000" stroke-width="1.6501"/> <path d="m430.26 122.14c54.763-27.6 76.434-12.41 85.011 5.939 18.178 38.89 19.163 91.239-67.551 138.05" fill="none" stroke="#000" stroke-width="1.6501"/> <path d="m228.57 161.44c-15.052 13.246-13.935 9.4948-21.223-1.2575-11.474-16.928-21.799-59.449-39.847-70.364" fill="none" stroke="#000" stroke-width="1.6501"/> <path d="m217.8 241.01c-31.264-14.491-49.593-32.957-52.036-65.045-2.4433-32.088-10.052-63.222-37.003-83.257" fill="none" stroke="#000" stroke-width="1.6501"/> <ellipse transform="matrix(.99815 -.06084 .032158 .99948 0 0)" cx="144.86" cy="99.663" rx="19.596" ry="2.9003" fill="#fff" stroke="#000" stroke-linecap="square" stroke-width="1.6504"/> <path d="m320.71 85.788 1.5e-4 -31.8h37.581v31.8" fill="#fff" stroke="#000" stroke-width="1.6501"/> </g> </svg>